# xmcd CD database file
#
# Track frame offsets:
#	150
#	13738
#	32608
#	52285
#	68835
#	82220
#	98855
#	112133
#	129075
#	149643
#	168048
#	181645
#	195300
#	214383
#	231885
#	248015
#
# Disc length: 3574 seconds
#
# Revision: 0
# Processed by: cddbd v1.5.1PL2 Copyright (c) Steve Scherf et al.
# Submitted via: CDex 1.51
#
DISCID=e00df410
DTITLE=Fratelos - Fratelos
DYEAR=1990
DGENRE=Jazz
TTITLE0=Promenade
TTITLE1=You'd be so nice to come home to
TTITLE2=Paouliña Nostra
TTITLE3=Splanky
TTITLE4=Nocturno de Harlem
TTITLE5=Tell me a bedtime story
TTITLE6=Take five
TTITLE7=Don't get around much anymore
TTITLE8=Bloody Mary
TTITLE9=Sugar
TTITLE10=Pretextos
TTITLE11=A night in Tunisia
TTITLE12=Eyra
TTITLE13=Duke Ellington Medley
TTITLE14=Where is the love
TTITLE15=Fly me to the moon
EXTD=YEAR: 1990
EXTT0=
EXTT1=
EXTT2=
EXTT3=
EXTT4=
EXTT5=
EXTT6=
EXTT7=
EXTT8=
EXTT9=
EXTT10=
EXTT11=
EXTT12=
EXTT13=
EXTT14=
EXTT15=
PLAYORDER=
